<?xml version="1.0" encoding="utf-8"?><!-- Uploaded to: SVG Repo, www.svgrepo.com, Generator: SVG Repo Mixer Tools -->
<svg width="800px" height="800px" viewBox="0 0 128 128" xmlns="http://www.w3.org/2000/svg" xmlns:xlink="http://www.w3.org/1999/xlink" aria-hidden="true" role="img" class="iconify iconify--noto" preserveAspectRatio="xMidYMid meet"><path d="M94 71.35c-8.08-7.63-21.82-13.99-30.91-18.2c-1.54-.71-2.93-1.35-4.11-1.92c-3.43-1.65-8.12-6.22-6.1-11.47c1.36-3.55 4.81-5.34 10.27-5.34c1.75 0 3.67.2 5.72.58c7.12 1.33 12.52 3.99 15.58 5.5c.38.19.82.21 1.22.07c.39-.15.72-.45.89-.84l7.01-15.81c.31-.69.07-1.51-.57-1.93c-4.94-3.28-17.27-8.15-30.97-8.15c-1.98 0-3.95.1-5.87.3c-10.92 1.12-21.86 4.03-27.92 17.64c-3.78 8.47-3.77 18.01.01 24.89c4.04 7.51 10.66 10.87 19.04 15.11l1.08.55c6.05 3.02 13.3 6.38 18.07 8.59c7.05 3.4 9.66 9.44 8.04 13.08c-2.61 5.87-8.38 7.16-18.36 4.33c-8.81-2.39-16.94-9.14-19.21-11.15c-.34-.3-.79-.44-1.25-.38c-.45.06-.85.32-1.1.69L24.6 104.14c-.41.63-.32 1.46.22 1.98c5.63 5.43 10.22 8.59 18.17 12.5c5.35 2.63 13.18 4.21 20.95 4.21c8.12 0 27.95-1.88 36.65-19.26c5.55-11.12 3.48-22.84-5.69-32.22z" fill="#ffd36b" fill-opacity="0.25"></path><path d="M115.37 117.77L77.78 17.81a2.242 2.242 0 0 0-2.1-1.45H52.32c-.94 0-1.77.58-2.1 1.45l-37.59 99.96c-.26.69-.17 1.46.25 2.06s1.1.97 1.84.97h24.64c.96 0 1.82-.62 2.13-1.54l5.7-17.18H80.8l5.71 17.18c.3.92 1.16 1.54 2.13 1.54h24.64a2.236 2.236 0 0 0 2.09-3.03zm-61.14-36.9L64 51.45l9.77 29.43H54.23z" fill="#bbc7f8" stroke="#031d86" fill-opacity="0.85" stroke-width="0.5"></path></svg>